<?xml version="1.0" encoding="UTF-8"?>
<svg xmlns="http://www.w3.org/2000/svg" width="72" height="72" viewBox="0 0 72 72" fill="none">
  <path d="M9 35.9535C9.00269 35.956 9.00778 35.9577 9.01208 35.959M9.01208 35.959C9.014 35.9596 9.01709 35.9605 9.01709 35.9605C9.01194 36.0172 9.01062 36.0095 9.01208 35.959ZM9.01208 35.959C9.01805 35.7525 9.07063 34.8308 9.09899 34.6843C9.28935 33.7055 9.71948 32.949 10.7274 32.483C12.9029 31.477 15.5902 32.1341 15.8077 34.5853C15.8096 34.6046 15.7669 34.0687 15.7741 33.9891C15.8053 33.6513 15.8556 33.3133 15.971 32.9899C16.3792 31.8454 17.2344 31.0173 18.4134 30.4859C21.1304 29.2615 24.0087 30.4103 24 33.2654M27.051 34.7168C26.8332 34.7142 27.3711 34.4456 27.5673 34.3617C27.9367 34.2035 28.3272 34.0955 28.7337 34.0427C29.9451 33.8853 31.1624 34.1667 32.1317 34.827C34.2709 36.2842 33.5782 38.4411 31.3387 39.3696C31.2916 39.3891 31.7117 39.2374 31.7585 39.232C32.1283 39.1899 32.527 39.2163 32.8892 39.2921C33.9444 39.5131 34.9051 40.2017 35.4873 41.0007C36.8802 42.9129 35.2336 44.7728 32.9635 45M21.587 55C23.8937 52.3143 22.7469 47.992 20.0823 46.6625C14.9831 44.1179 8.83557 43.8979 3.79587 41.2507C2.78107 40.7177 1.5705 39.845 1.15972 38.7321C0.642157 37.3302 1.40842 34.5993 3.08179 34.4601C3.08179 34.4534 2.68335 33.94 2.5994 33.4151C2.49629 32.668 2.55654 31.8705 2.86221 31.1774C3.48397 29.7669 6.49465 28.155 7.87188 29.5295C7.87572 29.5334 7.90338 29.0227 7.90649 28.9911C7.94385 28.6193 8.07132 28.2474 8.21619 27.905C8.6539 26.8701 9.3372 25.9071 10.2238 25.2085C12.0552 23.7657 16.114 23.202 17.3914 25.7516C17.3914 25.7516 17.8579 24.6001 18.2712 24.1791C19.0862 23.3492 20.1719 22.699 21.2733 22.3253C24.2679 21.3092 27.7298 22.7062 28.1499 26.061C28.1499 26.061 28.6276 25.794 28.6701 25.7707C29.0091 25.5854 29.3563 25.4076 29.7114 25.2557C30.7249 24.8221 31.9758 24.5017 33.0607 24.8437C35.9509 25.7547 37.5486 28.9364 36.0534 31.6225C36.0534 31.6225 36.8144 31.7433 37.1821 31.8541C37.9057 32.0721 38.5041 32.4779 39.0115 33.0339C40.325 34.4725 40.5988 36.8416 38.9365 38.1178C38.9365 38.1178 39.2583 38.2383 39.6437 38.5846C40.1225 39.0147 40.5239 39.5555 40.7569 40.1583C41.4616 41.9816 40.5201 42.9536 39.3919 44.0795C39.3659 44.0664 39.5905 44.2523 39.6307 44.2879C39.8219 44.4566 39.9998 44.6622 40.1276 44.883C40.49 45.5088 40.4151 46.3348 40.2271 47.0056C39.6992 48.8865 37.8517 50.2818 35.8939 49.6306C35.8068 49.9579 35.354 50.6655 34.8077 51.0184C33.5101 51.8563 31.3934 51.8511 30.1698 50.9192C29.5198 50.4242 29.1607 49.6832 28.5398 49.1669C28.7396 49.3484 28.6437 50.5474 28.6124 50.7386C28.3957 52.0602 27.4249 54.0079 26.3066 54.8448L21.587 55Z" stroke="#1F2122" stroke-width="2" stroke-miterlimit="1.5" stroke-linecap="round" stroke-linejoin="round"></path>
</svg>
