<?xml version="1.0" encoding="UTF-8"?>
<svg xmlns="http://www.w3.org/2000/svg" width="72" height="72" viewBox="0 0 72 72" fill="none">
  <path d="M34.0331 28.1655C34.0101 27.6137 34.4388 27.1477 34.9906 27.1247L36.9889 27.0415C37.5407 27.0186 38.0067 27.4473 38.0296 27.9991C38.0526 28.5509 37.6239 29.0168 37.0721 29.0398L35.0738 29.123C34.522 29.146 34.0561 28.7173 34.0331 28.1655Z" fill="#1F2122"></path>
  <path d="M29.0375 28.3735C29.0145 27.8217 29.4432 27.3557 29.995 27.3327L31.9933 27.2495C32.5451 27.2266 33.0111 27.6553 33.034 28.2071C33.057 28.7589 32.6283 29.2248 32.0765 29.2478L30.0782 29.331C29.5264 29.354 29.0605 28.9253 29.0375 28.3735Z" fill="#1F2122"></path>
  <path d="M24.0419 28.5815C24.0189 28.0297 24.4476 27.5637 24.9994 27.5407L26.9977 27.4575C27.5495 27.4346 28.0155 27.8633 28.0384 28.4151C28.0614 28.9669 27.6327 29.4328 27.0809 29.4558L25.0826 29.539C24.5308 29.562 24.0649 29.1333 24.0419 28.5815Z" fill="#1F2122"></path>
  <path d="M6.33422 45.0458C8.80122 43.3563 9.65336 42.9454 11.2746 41.4971M11.69 48.1806C9.04805 46.7805 8.15496 46.4684 6.3806 45.2125M25.2414 43.9749C22.5994 42.5748 21.7063 42.2627 19.932 41.0068M20.2642 47.5257C22.7312 45.8362 23.5834 45.4253 25.2046 43.977M13.693 50.6459C15.4475 45.3346 16.0863 44.0906 17.175 39.4439M43.0122 31C37.865 31.8965 32.1925 31.6149 26.9645 31.9443C18.3698 32.4853 9.64574 33.6363 1.03309 33.6805M48.5412 26.3878C47.5398 24.33 46.9173 22.7111 44.6171 22.2711C46.1057 21.1916 46.4315 18.4811 46.0777 16.6288C46.9709 18.1987 47.9095 20.0693 49.567 20.8396C48.2553 22.083 48.0307 24.3647 48.4625 26.1655M8.97406 54.9521C14.6578 54.7551 37.9789 54.1859 41.9959 52.5234C46.8018 50.5344 44.5658 36.0828 43.885 30.7019C43.6133 28.5547 42.565 25.8074 40.4917 24.7356C36.8835 22.87 6.86563 25.0153 4.1141 26.0812C-0.0763664 27.7046 1.13771 33.2333 1.24294 36.0941C1.39372 40.1949 1.60418 44.3081 1.88198 48.4026C2.01935 50.4278 1.98958 52.4904 3.62611 53.9182C5.10626 55.2095 7.19737 55.0137 8.97406 54.9521Z" stroke="#1F2122" stroke-width="2" stroke-miterlimit="1.5" stroke-linecap="round" stroke-linejoin="round"></path>
</svg>
