<?xml version="1.0" encoding="UTF-8"?>
<svg xmlns="http://www.w3.org/2000/svg" width="72" height="72" viewBox="0 0 72 72" fill="none">
  <path d="M27.3152 35.7757C26.7315 34.2576 25.9767 31.7422 27.3988 31.0954C29.028 30.5866 30.9614 36.6725 29.1003 37.4774C28.5052 37.7348 27.5706 36.4399 27.3152 35.7757ZM27.3152 35.7757C26.7357 34.2688 25.9877 31.7784 27.3677 31.1093C26.0268 31.5628 24.5511 31.9433 23.0976 32.318C22.1224 32.5695 21.1573 32.8183 20.2497 33.0849C20.4487 34.5418 20.7081 35.4134 21.0204 36.4622C21.0598 36.5946 21.1 36.7299 21.1411 36.8695C21.3373 37.536 22.2805 39.6889 23.1731 40.915C24.1139 40.4225 24.9375 39.9107 25.7941 39.3784C26.7472 38.7861 27.7412 38.1684 28.983 37.5236C28.981 37.5185 28.9789 37.5134 28.9769 37.5082C28.3835 37.5643 27.5535 36.3956 27.3152 35.7757ZM14.3102 48.3761C11.3627 46.7891 9.2576 42.4659 8.38851 39.4442C7.99286 38.0685 7.77076 36.5414 8.0816 35.1244M3.92529 42.8867C4.11251 43.9065 4.4954 44.9122 5.16199 45.7146M16.5049 47.9657C15.6006 48.1039 14.5162 48.3291 13.4902 48.5293C13.9134 49.3664 14.4964 50.4035 15.1368 51.0981M15.1368 51.0981C15.4114 51.3959 15.7028 51.706 16.1077 51.8156C16.2686 51.8592 16.445 51.8622 16.6104 51.8482M15.1368 51.0981C14.4967 50.4038 13.9146 49.3671 13.4915 48.5302C12.2969 48.7644 10.9321 49.0523 9.85742 49.3626C9.88172 49.4497 9.93393 49.5804 9.96713 49.6635C9.97095 49.6731 9.97451 49.682 9.97775 49.6902C11.0486 52.3865 12.4822 55.4434 15.0479 57.0419C16.5053 57.95 18.106 58.1338 19.6803 57.4073C20.4068 57.0722 21.1943 56.3379 21.1054 55.4705C20.985 54.2954 19.7937 53.1133 18.7615 52.0892C18.5327 51.8622 18.3118 51.643 18.112 51.4333C17.7104 51.7331 16.9658 51.8183 16.6104 51.8482M16.6104 51.8482C17.1014 51.8069 18.3337 51.6604 18.3809 50.988C18.4115 50.5511 18.0697 50.1084 17.8237 49.7795C17.3796 49.1855 16.9609 48.5719 16.5495 47.955M52.6261 25.2664C52.3325 22.941 52.2748 21.1673 50.0243 19.9657C51.9823 19.4258 53.3206 16.9182 53.6306 15.01C53.9901 16.8277 54.2867 18.9512 55.7418 20.2548C53.909 21.0126 52.8345 23.1403 52.6253 25.0252M40.9963 7.15332C40.2853 8.4372 39.5198 9.75842 38.9355 11.1019M34.0002 11.5212C34.7897 11.7842 35.556 12.1128 36.3139 12.455M40.8403 13.4323C41.6573 13.943 42.5228 14.252 43.4006 14.6299M36.7045 18.2182C36.904 17.2951 37.2514 16.0095 37.834 15.2308M47.5194 38.9999C46.9779 38.0994 46.4327 37.1517 45.8088 36.3084M47.5776 34.0761C47.1318 34.4714 46.6538 34.829 46.1702 35.1764M44.6597 36.3932C44.0505 36.717 43.5491 37.143 43.0005 37.552M43.4348 33.0934C43.9357 33.5476 44.6085 34.2233 44.8828 34.8633M25.9017 47.5281C34.5325 48.8475 35.6738 45.3349 36.6306 39.8832C37.8405 32.9893 33.3462 20.9081 25.3687 20.1764C20.2958 19.711 18.949 25.3771 15.9026 28.4989C11.5601 32.9487 8.45714 34.964 3.27126 38.2462C-0.396084 40.5672 1.74121 47.4462 5.64418 49.2876C7.76497 50.2882 10.3491 49.1283 12.4622 48.7297C16.8973 47.8931 21.3699 46.8355 25.9017 47.5281ZM25.356 22.2933C32.079 23.452 34.6646 32.0878 34.9311 37.9176C35.0664 40.8787 34.0323 45.9155 30.0536 45.4642C23.346 44.7036 19.7996 36.1281 20.1457 30.2325C20.3121 27.3986 21.5706 21.9021 25.356 22.2933Z" stroke="#1F2122" stroke-width="2" stroke-miterlimit="1.5" stroke-linecap="round" stroke-linejoin="round"></path>
</svg>
