<?xml version="1.0" encoding="UTF-8"?>
<svg xmlns="http://www.w3.org/2000/svg" width="72" height="72" viewBox="0 0 72 72" fill="none">
  <path d="M21.9999 18L44.9999 18M21.9999 31H36.9999M21.9999 44H30.9999M15.9616 15C13.3647 16.1217 10.8057 18.0228 9.15824 20.315C8.91117 19.899 8.25673 18.5129 8.00391 18.1004M15.9616 28.8103C13.3647 29.932 10.8057 31.8331 9.15824 34.1253C8.91117 33.7093 8.25673 32.3232 8.00391 31.9107M15.9616 41.4697C13.3647 42.5914 10.8057 44.4925 9.15824 46.7847C8.91117 46.3687 8.25673 44.9826 8.00391 44.5702M46.7154 30.8562C52.0927 28.7281 58.2556 31.0041 61.6863 34.8165C67.5988 41.3872 65.2493 52.6853 58.6056 56.1052C51.2801 59.8756 43.9019 56.239 41.073 51.5844C37.4065 45.5517 37.4886 37.4445 43.4688 33.1717M56.114 41.4487C56.0194 42.1781 55.8523 42.9084 55.66 43.6186M49.943 39.3947C49.6874 40.2335 49.3735 41.0951 49.2069 41.9594M57.6616 48.3336C57.2197 49.0536 56.5497 49.5991 55.8118 49.9921C52.193 51.9199 47.2313 49.4999 46.2337 45.5724" stroke="#1F2122" stroke-width="2" stroke-miterlimit="1.5" stroke-linecap="round" stroke-linejoin="round"></path>
</svg>
