<?xml version="1.0" encoding="UTF-8"?>
<svg xmlns="http://www.w3.org/2000/svg" width="72" height="72" viewBox="0 0 72 72" fill="none">
  <path d="M53.3382 37.6251C52.6002 37.612 50.4822 37.5839 49.745 37.6251C48.733 35.5436 47.1368 33.9361 45.0327 32.9526C43.7463 32.351 42.1704 32.1761 41.1084 31.1629C40.698 30.7719 40.3958 30.2497 40.1345 29.6989C39.1851 27.697 38.6894 25.5945 37.9622 23.5125C37.6017 22.4795 37.1472 21.2149 36.1856 20.5789C34.2214 19.2801 32.4302 21.4037 32.0154 23.1822C31.2267 26.5664 32.197 30.1976 33.765 33.2218C30.3697 32.8906 26.8685 32.8419 23.5375 33.6758C21.9572 34.0712 20.2774 34.9722 20.1481 36.7904C20.0569 38.0689 20.6343 39.4272 21.5773 40.2893C21.8862 40.5712 22.8978 41.2337 22.8926 41.2377C22.8617 41.2611 22.3248 43.0096 22.2034 43.7024C21.8386 45.7863 23.248 47.3573 25.2018 47.8308C23.6758 49.6098 24.8385 53.1761 27.5272 53.5338C27.4106 57.5426 32.0995 57.7492 34.9039 57.9951C42.4805 58.6593 44.8896 58.0929 49.9639 56.8414C50.5262 56.7026 52.9636 56.541 53.543 56.5398M58.8771 34.7564C57.3118 34.7434 54.6583 34.0506 53.3515 35.1915C52.5383 35.9016 53.0659 38.446 53.082 39.4453C53.1461 43.4701 53.1355 47.4956 53.1359 51.5208C53.1359 53.1995 52.3865 56.4824 53.7252 57.8117C54.9695 59.0474 57.5258 58.7023 59.11 58.7499M11.9999 46.9438C13.1237 46.4755 14.2598 46.1415 15.3864 45.7062M9 28.3562C10.1964 28.4739 11.3842 28.6722 12.5801 28.7839M20.3554 17.7069C19.2341 16.4682 18.1209 15.2383 17 14M37.7253 13.631C38.1795 12.0223 38.7022 10.4413 39.1989 8.85303M48.4253 23.0072C49.7492 21.9872 51.0637 20.9585 52.4128 19.9906" stroke="#1F2122" stroke-width="2" stroke-miterlimit="1.5" stroke-linecap="round" stroke-linejoin="round"></path>
</svg>
